<svg width="18" height="20" viewBox="0 0 18 20" fill="none" xmlns="http://www.w3.org/2000/svg">
<g clip-path="url(#clip0_66_53)">
<path d="M1.62239 4.74319L0.727776 0.703906C0.706055 0.60588 0.710451 0.503963 0.740538 0.408118C0.770622 0.312274 0.825365 0.225784 0.899412 0.157103C0.973461 0.0884226 1.06428 0.0399027 1.16299 0.0162871C1.2617 -0.00732853 1.36493 -0.00523144 1.46257 0.0223733L5.39833 1.14586C6.48571 0.642042 7.672 0.380865 8.87301 0.380865C10.074 0.380865 11.2603 0.642042 12.3477 1.14586L16.2844 0.0223733C16.382 -0.00523144 16.4852 -0.00732853 16.5839 0.0162871C16.6826 0.0399027 16.7735 0.0884226 16.8475 0.157103C16.9216 0.225784 16.9763 0.312274 17.0064 0.408118C17.0365 0.503963 17.0409 0.60588 17.0192 0.703906L16.1346 4.74319C16.8332 6.08198 17.1388 7.5872 17.0167 9.08861C16.8947 10.59 16.3499 12.0278 15.4439 13.2392C15.2042 13.5813 14.5851 14.5705 14.4685 15.7984C14.3849 16.6768 14.3417 17.6333 13.9293 17.6333C13.5169 17.6333 13.5619 17.0462 13.5371 16.7757C13.4692 16.067 12.6287 16.3066 12.4551 17.3674C12.2604 18.5472 13.0062 19.9574 11.9959 19.9992C10.9855 20.0409 11.882 18.4773 11.3768 17.7749C11.0002 17.2504 10.4299 17.5625 10.1561 18.598C9.74098 20.1716 8.20985 20.3812 7.90491 19.0681C7.5715 17.6333 7.15266 16.8574 6.60432 17.5117C5.85942 18.4011 5.13472 17.9727 4.93449 17.0416C4.73426 16.1105 4.5129 15.812 4.38339 15.6123C4.16112 15.2684 3.71748 15.0488 3.81209 16.3066C3.86352 16.979 4.28603 18.4982 3.38682 18.5299C2.48761 18.5617 2.86052 17.5317 2.9138 16.5334C2.96707 15.5352 2.99646 14.3128 2.0596 12.8753L2.04123 12.8472C1.25397 11.653 0.800543 10.2742 0.726982 8.85092C0.653421 7.42761 0.962345 6.0104 1.62239 4.74319ZM3.06443 9.35783C3.38774 10.465 4.64241 13.4479 8.87852 13.4479C13.0852 13.4479 14.3518 10.5104 14.6834 9.38415C14.6941 9.34803 14.6938 9.30961 14.6827 9.27363C14.6716 9.23764 14.6501 9.20564 14.6208 9.18155C14.5916 9.15746 14.5559 9.14234 14.518 9.13802C14.4802 9.13371 14.4419 9.1404 14.4079 9.15727C13.1091 9.80976 8.63603 11.6411 3.33906 9.13277C3.30535 9.11743 3.26792 9.11188 3.23114 9.11677C3.19436 9.12166 3.15974 9.13679 3.13133 9.16038C3.10292 9.18398 3.08189 9.21507 3.0707 9.25004C3.0595 9.285 3.0586 9.32238 3.0681 9.35783H3.06443Z" fill="white"/>
</g>
<defs>
<clipPath id="clip0_66_53">
<rect width="16.3288" height="20" fill="white" transform="matrix(-1 0 0 1 17.043 0)"/>
</clipPath>
</defs>
</svg>
