<svg width="80" height="20" viewBox="0 0 80 20" fill="none" xmlns="http://www.w3.org/2000/svg">
<path d="M3.92884 19.6679H0.241699V3.22968C0.242164 2.74505 0.436731 2.28041 0.782696 1.93772C1.12866 1.59504 1.59776 1.40232 2.08703 1.40186C2.57583 1.40278 3.04429 1.59576 3.3896 1.93844C3.73491 2.28113 3.92884 2.74552 3.92884 3.22968V8.71316H11.3031V3.22968C11.3036 2.74505 11.4982 2.28041 11.8441 1.93772C12.1901 1.59504 12.6592 1.40232 13.1484 1.40186C13.6379 1.40186 14.1072 1.59443 14.4533 1.93721C14.7994 2.28 14.9938 2.74491 14.9938 3.22968V19.6679H11.3066V12.3636H3.93235L3.92884 19.6679Z" fill="white"/>
<path d="M22.1716 2.31819C22.1739 2.62937 22.1099 2.93752 21.9838 3.22254C21.8645 3.49759 21.6921 3.7469 21.4763 3.95646C21.2589 4.16621 21.0041 4.33426 20.7249 4.45211C20.4337 4.57379 20.1209 4.63648 19.8048 4.63648C19.4888 4.63648 19.176 4.57379 18.8848 4.45211C18.6067 4.33507 18.3535 4.16689 18.1386 3.95646C17.9272 3.74473 17.7575 3.49585 17.6382 3.22254C17.5154 2.93777 17.4521 2.63133 17.4521 2.32167C17.4521 2.01202 17.5154 1.70558 17.6382 1.4208C17.8738 0.862942 18.3216 0.419364 18.8848 0.186019C19.1757 0.0632707 19.4887 0 19.8048 0C20.121 0 20.434 0.0632707 20.7249 0.186019C21.0038 0.304493 21.2584 0.472473 21.4763 0.681672C21.6926 0.892826 21.865 1.14394 21.9838 1.4208C22.1083 1.70388 22.1722 2.00942 22.1716 2.31819ZM21.5624 6.02602L21.4693 6.13559C21.2515 6.34614 20.9961 6.5148 20.7161 6.63297C20.4252 6.75461 20.1127 6.81728 19.7969 6.81728C19.4812 6.81728 19.1687 6.75461 18.8778 6.63297C18.6 6.51556 18.3473 6.34675 18.1333 6.13559C18.1 6.10254 18.0684 6.0695 18.0385 6.03472V19.6765H21.5747V6.02602H21.5624Z" fill="white"/>
<path d="M27.7581 19.6675H24.2466V6.02573H25.0946L26.2517 7.35095C26.814 6.84432 27.4658 6.44461 28.1743 6.17182C28.8911 5.89514 29.6541 5.75472 30.4234 5.7579C31.2412 5.75344 32.0512 5.91626 32.8025 6.23616C33.5337 6.54427 34.1979 6.98955 34.7584 7.54747C35.3185 8.10852 35.7654 8.77018 36.0753 9.49703C36.3985 10.2484 36.5617 11.0577 36.5546 11.8744V19.6692H33.043V11.8744C33.0443 11.526 32.9738 11.181 32.8359 10.8605C32.704 10.549 32.5119 10.266 32.2705 10.0275C32.0307 9.78904 31.747 9.59835 31.4347 9.46573C31.115 9.33128 30.7708 9.26321 30.4234 9.26573C30.0661 9.2636 29.712 9.3328 29.3822 9.46921C28.9021 9.6666 28.4917 10.0003 28.2027 10.4283C27.9136 10.8563 27.759 11.3595 27.7581 11.8744V19.6675Z" fill="white"/>
<path d="M42.5859 19.6679H39.0498V2.3514C39.0498 1.88693 39.2361 1.44148 39.5677 1.11304C39.8992 0.784609 40.349 0.600098 40.8179 0.600098C41.2868 0.600098 41.7365 0.784609 42.0681 1.11304C42.3997 1.44148 42.5859 1.88693 42.5859 2.3514V12.6244L47.8199 6.05054H51.8582L47.2932 11.7323L51.8582 19.6679H47.8199L45.03 14.7131L42.5859 17.9236V19.6679Z" fill="white"/>
<path d="M56.7829 19.6679H53.2485V2.3514C53.2485 1.88693 53.4348 1.44148 53.7664 1.11304C54.098 0.784609 54.5477 0.600098 55.0166 0.600098C55.4855 0.600098 55.9352 0.784609 56.2668 1.11304C56.5984 1.44148 56.7847 1.88693 56.7847 2.3514V12.6244L62.0187 6.05054H66.057L61.4919 11.7323L66.057 19.6679H62.0187L59.2287 14.7131L56.7847 17.9236L56.7829 19.6679Z" fill="white"/>
<path d="M77.5646 18.0768C77.2777 18.3343 76.9751 18.5742 76.6586 18.7951C76.3397 19.0188 76.0019 19.2149 75.649 19.3812C75.3001 19.5462 74.9362 19.6784 74.5622 19.7759C74.191 19.8736 73.8086 19.9232 73.4245 19.9238C72.6051 19.9291 71.7924 19.7774 71.0313 19.4768C70.2862 19.1859 69.6097 18.7457 69.0444 18.1836C68.4791 17.6216 68.0371 16.9499 67.7463 16.2107C67.4143 15.3688 67.2503 14.471 67.2634 13.5672V6.02637H70.7609V13.5672C70.7546 13.986 70.8266 14.4023 70.9734 14.7951C71.101 15.1336 71.2956 15.4434 71.5458 15.7064C71.7829 15.9508 72.0703 16.1418 72.3886 16.2664C72.7181 16.3959 73.0699 16.4609 73.4245 16.4577C73.7803 16.459 74.1311 16.3742 74.4463 16.2107C74.7663 16.0457 75.0521 15.8227 75.2891 15.5533C75.5297 15.28 75.721 14.9676 75.8545 14.6298C75.9905 14.2918 76.0602 13.9312 76.0599 13.5672V6.02637H79.5714V19.6681H78.7217L77.5646 18.0768Z" fill="white"/>
</svg>
