<svg width="68" height="68" viewBox="0 0 68 68" fill="none" xmlns="http://www.w3.org/2000/svg">
<path d="M33.9998 45.3332C37.0056 45.3332 39.8883 44.1391 42.0137 42.0137C44.1391 39.8883 45.3332 37.0056 45.3332 33.9998C45.3332 30.9941 44.1391 28.1114 42.0137 25.986C39.8883 23.8605 37.0056 22.6665 33.9998 22.6665C30.9941 22.6665 28.1114 23.8605 25.986 25.986C23.8605 28.1114 22.6665 30.9941 22.6665 33.9998C22.6665 37.0056 23.8605 39.8883 25.986 42.0137C28.1114 44.1391 30.9941 45.3332 33.9998 45.3332Z" stroke="white" stroke-width="2.5" stroke-linecap="round" stroke-linejoin="round"/>
<path d="M8.5 45.3333V22.6667C8.5 18.9094 9.99256 15.3061 12.6493 12.6493C15.3061 9.99256 18.9094 8.5 22.6667 8.5H45.3333C49.0906 8.5 52.6939 9.99256 55.3507 12.6493C58.0074 15.3061 59.5 18.9094 59.5 22.6667V45.3333C59.5 49.0906 58.0074 52.6939 55.3507 55.3507C52.6939 58.0074 49.0906 59.5 45.3333 59.5H22.6667C18.9094 59.5 15.3061 58.0074 12.6493 55.3507C9.99256 52.6939 8.5 49.0906 8.5 45.3333Z" stroke="white" stroke-width="2.5"/>
<path d="M49.5835 18.4452L49.6118 18.4141" stroke="white" stroke-width="2.5" stroke-linecap="round" stroke-linejoin="round"/>
</svg>
