<svg width="68" height="68" viewBox="0 0 68 68" fill="none" xmlns="http://www.w3.org/2000/svg">
<path d="M47.0333 16.49C45.0965 14.2789 44.0291 11.4394 44.03 8.5H35.275V43.6333C35.2074 45.5346 34.4048 47.3354 33.036 48.6567C31.6672 49.9779 29.8391 50.7164 27.9366 50.7167C23.9133 50.7167 20.57 47.43 20.57 43.35C20.57 38.4767 25.2733 34.8217 30.1183 36.3233V27.37C20.3433 26.0667 11.7866 33.66 11.7866 43.35C11.7866 52.785 19.6066 59.5 27.9083 59.5C36.805 59.5 44.03 52.275 44.03 43.35V25.5283C47.5801 28.0779 51.8425 29.4458 56.2133 29.4383V20.6833C56.2133 20.6833 50.8866 20.9383 47.0333 16.49Z" fill="white"/>
</svg>
