<svg width="68" height="68" viewBox="0 0 68 68" fill="none" xmlns="http://www.w3.org/2000/svg">
<path d="M63.6366 17.0002C61.4549 17.9918 59.1033 18.6435 56.6666 18.9552C59.1599 17.4535 61.0866 15.0735 61.9933 12.2118C59.6416 13.6285 57.0349 14.6202 54.2866 15.1868C52.0483 12.7502 48.9033 11.3335 45.3333 11.3335C38.6749 11.3335 33.2349 16.7735 33.2349 23.4885C33.2349 24.4518 33.3483 25.3868 33.5466 26.2652C23.4599 25.7552 14.4783 20.9102 8.49995 13.5718C7.45161 15.3568 6.85661 17.4535 6.85661 19.6635C6.85661 23.8852 8.98161 27.6252 12.2683 29.7502C10.2566 29.7502 8.38661 29.1835 6.74328 28.3335V28.4185C6.74328 34.3118 10.9366 39.2418 16.4899 40.3468C14.707 40.8348 12.8352 40.9026 11.0216 40.5452C11.7912 42.9605 13.2983 45.074 15.3312 46.5885C17.364 48.1029 19.8204 48.9423 22.3549 48.9885C18.0586 52.3897 12.7329 54.2282 7.25328 54.2018C6.28995 54.2018 5.32661 54.1452 4.36328 54.0318C9.74661 57.4885 16.1499 59.5002 23.0066 59.5002C45.3333 59.5002 57.6016 40.9702 57.6016 24.9052C57.6016 24.3668 57.6016 23.8568 57.5733 23.3185C59.9533 21.6185 61.9933 19.4652 63.6366 17.0002Z" fill="#F8F8F8"/>
</svg>
